<?xml version="1.0" encoding="utf-8"?>
<svg width="775.57" height="301.241" viewBox="0 0 775.57 301.241" fill="none" xmlns="http://www.w3.org/2000/svg">
  <g id="Group" transform="translate(0 0)">
    <path id="Shape" d="M79.1935 55.41C78.2535 55.59 77.2235 55.69 76.1235 55.78C77.2135 50.89 75.8535 47.2 74.9635 46.03C74.7635 45.48 73.6235 45.02 72.8535 45.43C70.3835 46.75 66.7935 47.64 63.5535 49.67C63.5035 48.63 63.4635 47.67 63.4935 46.79C63.7935 37.05 54.3936 33.43 51.7435 27.9C51.1335 26.63 53.9235 22.65 57.7535 19C59.6135 17.23 60.7335 15.95 59.2935 13.1C58.1935 10.92 52.4535 14.8 49.0835 13.51C44.3735 12.79 41.4135 13.85 39.5735 15.85C39.5735 15.85 39.2735 15.65 39.2735 15.65C40.3535 11.72 38.3035 7.98 36.7535 4.37001C37.2335 7.32002 39.1435 11.58 37.5535 14.17C35.7635 17.09 32.4634 18.81 30.2134 19.22C28.3635 19.55 24.8035 19.24 22.3334 19.02C20.4835 17.68 17.9835 16.89 16.8434 14.91C15.5934 12.74 15.8134 10.55 14.4534 8.45C15.1534 10.27 15.2335 11.6 15.1334 13.55C10.1434 9.50999 9.60339 6.16 11.2334 0C8.13342 8.12999 10.8434 11.93 16.7634 17.5C14.0234 17.88 12.2034 18.33 10.0134 16.44C12.2834 18.88 13.5834 19.64 18.0435 19.29C18.9034 19.22 19.6135 19.6 19.9034 20.41C20.7935 22.94 17.2734 26 17.2435 24.55C17.2134 23.05 14.3835 22.34 14.3835 22.34C14.3835 22.34 17.2435 24.55 15.1735 26.02C11.7734 28.44 4.63348 24.58 6.56348 19.26C7.17346 17.58 7.50348 16.15 8.01349 13.5C7.09351 15.66 5.10352 20.73 4.57349 18.44C4.24347 17.03 4.49347 12.44 5.24347 9.68999C3.37347 14.77 1.45349 18.87 5.87347 23.79C7.7735 25.9 3.47345 24.24 0.22345 22.58C-1.08655 21.91 3.65344 25.91 6.89343 25.87C9.27344 29.09 12.3834 29.73 16.0134 28.14C16.9834 27.72 16.7234 29.13 16.1834 30.03C12.6034 35.9 7.91339 35.6 2.1734 33.27C6.78339 35.72 9.38342 37.16 13.6934 34.17C13.4334 35.94 13.0234 38.31 11.1534 37.38C14.5734 39.08 13.7734 34.7 15.5034 33.49C22.5834 28.52 21.1834 25.22 23.9134 21.67C30.4634 22.91 32.0934 19.61 36.8834 18.44C37.1733 18.3699 37.5034 18.47 37.8533 18.6799C37.8433 18.72 37.8233 18.7599 37.8134 18.7899C36.4933 19.2299 35.0433 19.9099 34.0934 20.9399C31.9534 23.2599 33.1434 26.4699 33.1434 26.4699C33.1434 26.4699 35.1034 27.0199 36.9834 26.2099C38.3034 34.9699 48.1434 38.4899 47.5234 45.9499C47.1334 50.6299 45.9034 54.7899 39.5934 58.8599C34.4234 62.1999 30.3834 61.0299 25.4034 63.4799C20.4434 65.9199 19.8834 67.3099 17.6134 69.9499C16.4334 69.5499 14.8034 69.8799 12.9334 71.2499C10.2034 73.2399 9.0434 78.1299 9.0434 78.1299C9.0434 78.1299 12.0334 78.3599 14.6434 77.5499C14.6434 77.9699 14.6434 78.3899 14.6734 78.8199C15.8734 81.5599 16.6134 83.7499 17.0134 85.4999C16.8535 90.9899 12.2834 89.1999 11.9234 90.2699C11.7334 93.1699 14.4034 99.6499 7.19342 105.82C6.93341 106.04 6.89343 106.32 6.97345 106.6C6.40344 106.8 5.81348 107.31 5.27344 108.2C4.75342 109.05 4.96344 108.68 4.99341 109.6C4.99341 109.87 6.68341 110.92 6.93341 110.8C7.78339 110.38 7.69342 110.64 8.22339 109.79C8.70337 109.01 8.95337 108.38 8.97339 107.89C9.0434 107.89 9.1134 107.87 9.18341 107.86C10.1934 107.6 11.9434 104.16 13.4834 100.74C13.5934 103.93 12.7934 107.7 9.14337 111.64C8.88336 111.92 8.87335 112.24 9.00336 112.55C8.39337 112.83 7.81335 113.48 7.32336 114.55C6.85339 115.57 7.04333 115.13 7.20337 116.17C7.25336 116.48 9.25336 117.5 9.52338 117.33C10.4134 116.77 10.3534 117.07 10.8134 116.05C11.2433 115.11 11.4333 114.38 11.3934 113.81C11.4734 113.8 11.5533 113.78 11.6234 113.75C13.7833 112.96 17.5134 97.5599 17.9034 97.0399C22.5334 90.9299 29.0234 96.8099 33.7034 85.4999C34.1034 84.5199 34.4233 83.5799 34.6833 82.6699C40.4434 81.7599 46.1533 79.4099 51.0234 75.9699C53.7134 74.0699 55.8234 72.1699 57.5134 70.2899C59.6334 69.7899 62.2634 68.8899 65.3334 67.4499C67.2334 66.5599 69.3634 65.2999 71.4734 63.9399C71.3134 64.5099 71.0434 65.0499 70.6034 65.5599C70.5734 65.5999 70.5434 65.6399 70.5334 65.6799C70.0634 65.8299 69.5534 66.1299 68.9934 66.6299C68.2434 67.3099 68.5534 67.0099 68.3134 67.9299C68.2434 68.1999 69.5434 69.7699 69.8134 69.7299C70.7534 69.5799 70.5934 69.8099 71.3434 69.1299C72.2634 68.2999 72.7034 67.6199 72.7034 67.0199C74.9534 65.5699 73.6134 65.3199 74.1834 62.1299C75.2534 61.3899 76.2834 60.6599 77.2434 59.9599C76.3434 61.4898 75.3134 63.5098 74.1434 66.0999C72.4634 69.7899 73.3434 74.0399 70.2335 75.9599C70.1835 75.9899 70.1434 76.0299 70.1135 76.0599C69.5735 76.0599 68.9235 76.2199 68.1735 76.5699C67.1534 77.0399 67.5834 76.8299 67.0334 77.7199C66.8735 77.9799 67.7335 80.0699 68.0334 80.1099C69.0734 80.2599 68.8334 80.4499 69.8434 79.9799C71.0934 79.3999 71.7734 78.8299 71.9734 78.1999C75.6235 77.1699 72.4135 76.3099 77.3834 70.1699C82.1034 64.3399 81.8834 58.5299 81.2134 56.7199C81.1834 56.0699 80.1334 55.2099 79.1834 55.3999C79.1834 55.3999 79.1935 55.41 79.1935 55.41ZM66.2235 57.41C68.3835 55.1 70.5935 52.29 72.3935 49.89C72.0235 51.45 71.6735 53.46 71.3535 56.01C71.3535 56.08 71.3435 56.14 71.3335 56.2C69.6535 56.42 67.9335 56.77 66.2235 57.4C66.2235 57.4 66.2235 57.41 66.2235 57.41Z" fill="#231F20" transform="translate(693.997 0)" />
    <path id="Shape" d="M89.6727 63.5999C88.6127 63.8 87.4327 63.9099 86.1827 63.99C87.4627 58.45 85.9527 54.24 84.9527 52.9C84.7327 52.27 83.4427 51.74 82.5627 52.2C79.7427 53.68 75.6627 54.6599 71.9627 56.93C71.9127 55.75 71.8727 54.65 71.9127 53.65C72.3527 42.58 61.6927 38.39 58.7327 32.08C58.0527 30.6299 61.2527 26.14 65.6427 22.03C67.7727 20.03 69.0527 18.6 67.4427 15.34C66.2127 12.86 59.6527 17.21 55.8327 15.71C50.4927 14.85 47.1127 16.03 45.0127 18.28C45.0127 18.28 44.6727 18.05 44.6727 18.05C45.9327 13.59 43.6327 9.31995 41.9127 5.20996C42.4327 8.55997 44.5627 13.42 42.7327 16.35C40.6727 19.65 36.9026 21.58 34.3427 22.01C32.2427 22.37 28.1926 21.98 25.3926 21.71C23.3026 20.17 20.4727 19.25 19.1926 16.99C17.7926 14.51 18.0626 12.02 16.5426 9.63C17.3126 11.7 17.3926 13.21 17.2726 15.43C11.6426 10.79 11.0626 6.97998 12.9626 0C9.36261 9.20001 12.4126 13.55 19.0826 19.93C15.9626 20.34 13.8926 20.83 11.4226 18.66C13.9826 21.45 15.4426 22.33 20.5226 21.97C21.4926 21.9 22.3026 22.34 22.6226 23.26C23.6125 26.14 19.5826 29.59 19.5626 27.94C19.5425 26.23 16.3326 25.41 16.3326 25.41C16.3326 25.41 19.5626 27.94 17.2026 29.6C13.3226 32.32 5.2326 27.87 7.4826 21.84C8.19263 19.94 8.57263 18.31 9.18262 15.31C8.11261 17.75 5.81262 23.5 5.2226 20.89C4.86261 19.28 5.19257 14.08 6.06262 10.95C3.89264 16.71 1.67261 21.34 6.65265 26.98C8.79266 29.4 3.92267 27.47 0.252625 25.55C-1.22736 24.77 4.12262 29.37 7.7926 29.35C10.4626 33.03 13.9926 33.79 18.1326 32.02C19.2326 31.55 18.9326 33.15 18.3026 34.17C14.1826 40.8 8.8526 40.42 2.3526 37.73C7.56262 40.56 10.5126 42.21 15.4326 38.86C15.1226 40.86 14.6326 43.56 12.5226 42.49C16.3926 44.45 15.5226 39.47 17.5026 38.11C25.5927 32.53 24.0327 28.77 27.1626 24.75C34.5926 26.22 36.4726 22.48 41.9226 21.2C42.2526 21.12 42.6226 21.24 43.0226 21.48C43.0026 21.52 42.9926 21.57 42.9726 21.61C41.4726 22.1 39.8126 22.85 38.7226 24.02C36.2726 26.63 37.5926 30.29 37.5926 30.29C37.5926 30.29 39.8126 30.93 41.9526 30.03C43.3726 40 54.5226 44.09 53.7426 52.56C53.2526 57.87 51.8126 62.59 44.6226 67.15C38.7126 70.9 34.1426 69.53 28.4626 72.27C22.8126 74.99 22.1626 76.57 19.5526 79.55C18.2126 79.09 16.3626 79.45 14.2226 80.98C11.1026 83.22 9.74261 88.77 9.74261 88.77C9.74261 88.77 13.1326 89.06 16.1126 88.16C16.1026 88.63 16.1026 89.11 16.1326 89.61C17.4727 92.74 18.2926 95.23 18.7227 97.22C18.4927 103.45 13.3127 101.38 12.8926 102.59C12.6426 105.89 15.6226 113.27 7.38263 120.21C7.08264 120.46 7.03265 120.78 7.12262 121.1C6.4726 121.32 5.80261 121.9 5.17261 122.9C4.57263 123.86 4.82263 123.44 4.84259 124.48C4.84259 124.79 6.75256 126 7.0426 125.86C8.01257 125.39 7.9126 125.69 8.51257 124.73C9.06256 123.84 9.3526 123.14 9.38257 122.58C9.46259 122.58 9.54254 122.56 9.62256 122.54C10.7726 122.26 12.7925 118.36 14.5726 114.49C14.6725 118.12 13.7226 122.39 9.54254 126.84C9.25256 127.15 9.23254 127.52 9.37256 127.87C8.68256 128.18 8.01257 128.91 7.45258 130.12C6.9126 131.28 7.13257 130.77 7.30255 131.95C7.35254 132.3 9.62256 133.48 9.92255 133.29C10.9326 132.66 10.8625 133.01 11.4025 131.85C11.9025 130.78 12.1225 129.95 12.0825 129.31C12.1725 129.3 12.2625 129.27 12.3425 129.24C14.8026 128.36 19.1826 110.9 19.6325 110.32C24.9525 103.42 32.2625 110.16 37.6925 97.36C38.1625 96.2599 38.5325 95.1899 38.8225 94.1599C45.3825 93.17 51.8825 90.5599 57.4525 86.7C60.5225 84.5699 62.9425 82.43 64.8725 80.3C67.2825 79.75 70.2825 78.7599 73.7825 77.15C75.9525 76.1499 78.3824 74.75 80.7925 73.22C80.6025 73.87 80.2925 74.48 79.7925 75.05C79.7525 75.09 79.7225 75.14 79.7025 75.19C79.1724 75.35 78.5825 75.69 77.9525 76.26C77.0925 77.03 77.4525 76.68 77.1724 77.73C77.0924 78.04 78.5524 79.83 78.8624 79.78C79.9324 79.6199 79.7424 79.88 80.6024 79.12C81.6624 78.18 82.1624 77.4199 82.1724 76.74C84.7324 75.11 83.2224 74.81 83.8924 71.19C85.1124 70.36 86.2924 69.54 87.3924 68.76C86.3624 70.48 85.1724 72.77 83.8124 75.71C81.8724 79.89 82.8324 84.72 79.2724 86.88C79.2224 86.91 79.1724 86.95 79.1324 87C78.5124 87 77.7824 87.17 76.9324 87.56C75.7724 88.09 76.2624 87.85 75.6224 88.85C75.4324 89.15 76.3924 91.52 76.7424 91.58C77.9224 91.76 77.6424 91.98 78.8024 91.45C80.2224 90.8 81.0124 90.16 81.2424 89.44C85.4023 88.31 81.7624 87.3 87.4724 80.36C92.8823 73.78 92.6923 67.18 91.9523 65.12C91.9223 64.38 90.7324 63.4 89.6523 63.6C89.6523 63.6 89.6727 63.5999 89.6727 63.5999ZM74.9227 65.7499C77.3926 63.14 79.9327 59.9699 82.0027 57.2599C81.5727 59.02 81.1527 61.3099 80.7627 64.21C80.7627 64.28 80.7527 64.36 80.7427 64.43C78.8327 64.66 76.8727 65.0399 74.9327 65.75C74.9327 65.75 74.9227 65.7499 74.9227 65.7499Z" fill="#231F20" transform="translate(607.437 79.53)" />
    <path id="Shape" d="M129.437 113.1C128.137 112.73 126.777 112.21 125.327 111.62C129.807 106.15 130.447 100.63 130.067 98.5901C130.167 97.7701 129.027 96.4701 127.797 96.5001C123.837 96.5901 118.757 95.4301 113.377 95.9301C113.967 94.5901 114.537 93.3401 115.127 92.2501C121.707 80.1601 112.147 69.6201 112.327 60.9601C112.367 58.9701 118.417 55.73 125.557 53.57C129.037 52.5201 131.247 51.63 131.247 47.11C131.247 43.67 121.537 44.91 118.107 41.13C112.627 37.22 108.217 36.68 104.637 38.03C104.637 38.03 104.387 37.58 104.387 37.58C108.257 33.31 108.037 27.28 108.377 21.76C107.107 25.78 106.807 32.37 103.157 34.62C99.0374 37.16 93.7874 37.23 90.6974 36.31C88.1574 35.55 83.8574 32.89 80.8974 31.04C79.4174 28.17 76.7674 25.59 76.5874 22.36C76.3874 18.83 78.0574 16.2 77.6874 12.7C77.4074 15.43 76.6674 17.16 75.3074 19.56C71.5874 11.29 73.0374 6.73001 79.0074 0C69.9274 8.26999 70.9274 14.8 74.8474 25.58C71.1474 24.32 68.5674 23.72 67.0174 19.95C68.3274 24.47 69.4774 26.26 75.3274 28.65C76.4474 29.11 77.1174 30.04 76.9574 31.25C76.4774 35 70.0774 36.62 70.9674 34.77C71.8874 32.86 68.7674 30.17 68.7674 30.17C68.7674 30.17 70.9674 34.77 67.4274 35.31C61.6074 36.2 55.0474 26.79 60.8774 21.31C62.7074 19.58 64.0374 17.98 66.3674 14.98C63.8374 17.11 58.0974 22.25 58.8875 19.02C59.3674 17.03 62.6075 11.41 65.2975 8.41003C59.6974 13.63 54.6775 17.57 57.1275 26.59C58.1775 30.46 53.8175 25.64 50.7775 21.47C49.5574 19.79 52.9875 27.85 57.0874 29.86C58.0374 35.4301 61.5574 38.22 67.1375 38.5301C68.6275 38.61 67.4075 40.2301 66.1474 41.0201C57.9074 46.14 52.1774 42.7801 46.4174 36.1901C50.6674 42.2101 53.0374 45.6801 60.3775 44.6601C58.9275 46.7201 56.8975 49.4501 55.1375 47.1001C58.3674 51.4201 60.1474 45.3901 63.0975 44.9601C75.1774 43.2 75.5175 38.1501 81.2175 35.4001C88.6774 41.1301 92.8374 38.0001 99.6174 39.58C100.027 39.6801 100.377 40.01 100.677 40.5001C100.637 40.5401 100.587 40.58 100.547 40.6201C98.6074 40.33 96.3474 40.2701 94.4874 40.9601C90.3174 42.5201 89.7775 47.32 89.7775 47.32C89.7775 47.32 91.8974 49.26 94.7775 49.43C90.8674 61.32 101.037 72.02 95.4975 81.02C92.0275 86.67 87.8274 91.13 77.2875 92.25C68.6375 93.1701 64.2975 89.1301 56.4575 89.05C48.6575 88.97 47.0675 90.37 42.5275 92.25C41.2975 91 39.0374 90.3801 35.7975 90.91C31.0874 91.68 26.5175 97.12 26.5175 97.12C26.5175 97.12 30.1375 99.31 33.9474 99.95C33.6674 100.47 33.4075 101 33.1774 101.58C32.9474 105.81 32.4874 109.03 31.8774 111.49C28.1874 118.31 23.5574 113.14 22.4274 114.26C20.3374 117.79 19.5874 127.66 6.57744 130.86C6.10744 130.97 5.87744 131.3 5.80743 131.7C4.96744 131.58 3.89743 131.86 2.63744 132.64C1.43744 133.38 1.94743 133.05 1.39743 134.22C1.23743 134.57 2.68742 136.97 3.08743 136.97C4.42743 136.98 4.14743 137.26 5.34743 136.52C6.44743 135.84 7.15742 135.21 7.50743 134.6C7.59743 134.64 7.69743 134.67 7.79742 134.69C9.23743 135.01 13.6274 131.77 17.7374 128.45C15.8474 132.54 12.4374 136.79 5.32742 139.43C4.82742 139.62 4.60742 140.01 4.56743 140.49C3.61743 140.46 2.47743 140.9 1.18742 141.94C-0.0525818 142.93 0.467422 142.49 0.00743103 143.9C-0.132568 144.32 1.74744 146.89 2.18742 146.84C3.66742 146.69 3.39743 147.04 4.62743 146.05C5.76743 145.14 6.47743 144.33 6.78743 143.6C6.89743 143.63 7.00743 143.66 7.11743 143.67C10.3374 144.05 24.8374 127 25.6574 126.6C35.3874 121.84 39.8174 133.38 52.9174 122.11C54.0474 121.14 55.0474 120.16 55.9474 119.17C63.7974 121.68 72.4774 122.36 80.8174 121.12C85.4074 120.44 89.2874 119.39 92.6074 118.08C95.5974 118.79 99.4774 119.34 104.267 119.48C107.237 119.56 110.717 119.34 114.237 118.97C113.667 119.59 112.987 120.1 112.117 120.46C112.047 120.49 111.997 120.52 111.947 120.57C111.267 120.46 110.417 120.51 109.407 120.79C108.027 121.17 108.617 120.99 107.727 121.99C107.467 122.29 108.107 125.09 108.477 125.21C109.757 125.62 109.407 125.81 110.787 125.43C112.477 124.96 113.467 124.39 113.847 123.64C117.597 123.24 116.077 122.07 118.827 118.41C120.647 118.16 122.417 117.9 124.067 117.63C121.967 118.98 119.387 120.88 116.247 123.4C111.787 126.98 110.187 132.9 105.037 133.35C104.957 133.35 104.887 133.38 104.817 133.41C104.127 133.07 103.217 132.85 102.057 132.82C100.477 132.77 101.157 132.77 99.8874 133.54C99.5074 133.77 99.2674 136.94 99.6374 137.19C100.857 138.04 100.427 138.13 102.007 138.18C103.947 138.24 105.177 137.95 105.827 137.29C111.087 138.32 107.587 135.19 117.767 130.61C127.427 126.26 130.837 118.8 131.157 116.09C131.527 115.25 130.747 113.5 129.437 113.13C129.437 113.13 129.437 113.1 129.437 113.1ZM111.817 107.37C116.007 105.83 120.587 103.69 124.377 101.82C122.927 103.55 121.197 105.87 119.167 108.88C119.117 108.96 119.067 109.04 119.017 109.11C116.767 108.32 114.367 107.66 111.817 107.37C111.817 107.37 111.817 107.37 111.817 107.37Z" fill="#231F20" transform="translate(181.673 141.45)" />
    <path id="Shape" d="M129.437 113.1C128.137 112.73 126.777 112.21 125.327 111.62C129.807 106.15 130.447 100.63 130.067 98.5901C130.167 97.7701 129.027 96.4701 127.797 96.5001C123.837 96.5901 118.757 95.4301 113.377 95.9301C113.967 94.5901 114.537 93.3401 115.127 92.2501C121.707 80.1601 112.147 69.6201 112.327 60.9601C112.367 58.9701 118.417 55.73 125.557 53.57C129.037 52.5201 131.247 51.63 131.247 47.11C131.247 43.67 121.537 44.91 118.107 41.13C112.627 37.22 108.217 36.68 104.637 38.03C104.637 38.03 104.387 37.58 104.387 37.58C108.257 33.31 108.037 27.28 108.377 21.76C107.107 25.78 106.807 32.37 103.157 34.62C99.0374 37.16 93.7874 37.23 90.6974 36.31C88.1574 35.55 83.8574 32.89 80.8974 31.04C79.4174 28.17 76.7674 25.59 76.5874 22.36C76.3874 18.83 78.0574 16.2 77.6874 12.7C77.4074 15.43 76.6674 17.16 75.3074 19.56C71.5874 11.29 73.0374 6.73001 79.0074 0C69.9274 8.26999 70.9274 14.8 74.8474 25.58C71.1474 24.32 68.5674 23.72 67.0174 19.95C68.3274 24.47 69.4774 26.26 75.3274 28.65C76.4474 29.11 77.1174 30.04 76.9574 31.25C76.4774 35 70.0774 36.62 70.9674 34.77C71.8875 32.86 68.7674 30.17 68.7674 30.17C68.7674 30.17 70.9674 34.77 67.4274 35.31C61.6074 36.2 55.0474 26.79 60.8774 21.31C62.7074 19.58 64.0374 17.98 66.3674 14.98C63.8374 17.11 58.0974 22.25 58.8874 19.02C59.3674 17.03 62.6074 11.41 65.2974 8.41003C59.6974 13.63 54.6774 17.57 57.1274 26.59C58.1774 30.46 53.8174 25.64 50.7774 21.47C49.5574 19.79 52.9874 27.85 57.0874 29.86C58.0374 35.4301 61.5574 38.22 67.1374 38.5301C68.6274 38.61 67.4074 40.2301 66.1474 41.0201C57.9074 46.14 52.1674 42.7801 46.4174 36.1901C50.6674 42.2101 53.0374 45.6801 60.3774 44.6601C58.9274 46.7201 56.8974 49.4501 55.1374 47.1001C58.3674 51.4201 60.1474 45.3901 63.0974 44.9601C75.1774 43.2 75.5174 38.1501 81.2174 35.4001C88.6774 41.1301 92.8374 38.0001 99.6174 39.58C100.027 39.6801 100.377 40.01 100.677 40.5001C100.637 40.5401 100.587 40.58 100.547 40.6201C98.6074 40.33 96.3474 40.2701 94.4874 40.9601C90.3174 42.5201 89.7774 47.32 89.7774 47.32C89.7774 47.32 91.8974 49.26 94.7774 49.43C90.8674 61.32 101.037 72.02 95.4974 81.02C92.0274 86.67 87.8274 91.13 77.2874 92.25C68.6374 93.1701 64.2974 89.1301 56.4574 89.05C48.6574 88.97 47.0674 90.37 42.5274 92.25C41.2974 91 39.0274 90.3801 35.7974 90.91C31.0874 91.68 26.5174 97.12 26.5174 97.12C26.5174 97.12 30.1374 99.31 33.9474 99.95C33.6674 100.47 33.4074 101 33.1774 101.58C32.9474 105.81 32.4874 109.03 31.8774 111.49C28.1874 118.31 23.5574 113.14 22.4274 114.26C20.3374 117.79 19.5874 127.66 6.57739 130.86C6.10739 130.97 5.87738 131.3 5.8074 131.7C4.96741 131.58 3.8974 131.86 2.63739 132.64C1.43738 133.38 1.94739 133.05 1.3974 134.22C1.2374 134.57 2.68741 136.97 3.0874 136.97C4.4274 136.98 4.1474 137.26 5.34741 136.52C6.44742 135.84 7.15741 135.21 7.50742 134.6C7.59741 134.64 7.69742 134.67 7.79742 134.69C9.23743 135.01 13.6274 131.77 17.7374 128.45C15.8474 132.54 12.4374 136.79 5.32742 139.43C4.82742 139.62 4.60742 140.01 4.56741 140.49C3.6174 140.46 2.47742 140.9 1.18741 141.94C-0.0525818 142.93 0.467407 142.49 0.00741577 143.9C-0.132599 144.32 1.74741 146.89 2.18741 146.84C3.66742 146.69 3.3974 147.04 4.62741 146.05C5.76743 145.14 6.47742 144.33 6.78741 143.6C6.8974 143.63 7.00742 143.66 7.1174 143.67C10.3374 144.05 24.8374 127 25.6574 126.6C35.3874 121.84 39.8174 133.38 52.9174 122.11C54.0474 121.14 55.0474 120.16 55.9474 119.17C63.7974 121.68 72.4774 122.36 80.8174 121.12C85.4074 120.44 89.2874 119.39 92.6074 118.08C95.5974 118.79 99.4774 119.34 104.267 119.48C107.237 119.56 110.717 119.34 114.237 118.97C113.667 119.59 112.987 120.1 112.117 120.46C112.047 120.49 111.997 120.52 111.947 120.57C111.267 120.46 110.417 120.51 109.407 120.79C108.027 121.17 108.617 120.99 107.727 121.99C107.467 122.29 108.107 125.09 108.477 125.21C109.757 125.62 109.407 125.81 110.787 125.43C112.477 124.96 113.467 124.39 113.847 123.64C117.597 123.24 116.077 122.07 118.827 118.41C120.647 118.16 122.417 117.9 124.067 117.63C121.967 118.98 119.387 120.88 116.247 123.4C111.787 126.98 110.187 132.9 105.037 133.35C104.957 133.35 104.887 133.38 104.817 133.41C104.127 133.07 103.217 132.85 102.057 132.82C100.477 132.77 101.157 132.77 99.8874 133.54C99.5074 133.77 99.2674 136.94 99.6374 137.19C100.857 138.04 100.427 138.13 102.007 138.18C103.947 138.24 105.177 137.95 105.827 137.29C111.087 138.32 107.587 135.19 117.767 130.61C127.427 126.26 130.837 118.8 131.157 116.09C131.527 115.25 130.747 113.5 129.437 113.13C129.437 113.13 129.437 113.1 129.437 113.1ZM111.817 107.37C116.007 105.83 120.587 103.69 124.377 101.82C122.927 103.55 121.197 105.87 119.167 108.88C119.117 108.96 119.067 109.04 119.017 109.11C116.767 108.32 114.367 107.66 111.817 107.37C111.817 107.37 111.817 107.37 111.817 107.37Z" fill="#231F20" transform="translate(322.303 154.4)" />
    <path id="Shape" d="M111.483 92.48C110.243 92.39 108.913 92.1801 107.503 91.91C110.513 86.14 110.043 81.04 109.323 79.27C109.253 78.51 107.983 77.55 106.883 77.81C103.333 78.64 98.5327 78.55 93.7727 80.01C94.0527 78.69 94.3327 77.4601 94.6627 76.37C98.3227 64.23 87.7227 56.53 86.2527 48.69C85.9127 46.89 90.7527 42.83 96.7927 39.54C99.7327 37.94 101.563 36.72 100.713 32.65C100.063 29.55 91.5527 32.49 87.7427 29.73C82.0728 27.24 77.9927 27.58 75.0128 29.47C75.0128 29.47 74.7028 29.11 74.7028 29.11C77.3828 24.53 76.0627 19.14 75.3328 14.09C74.9427 17.95 75.9128 23.95 73.0428 26.67C69.8028 29.74 65.0828 30.79 62.1228 30.54C59.6928 30.33 55.3128 28.74 52.2928 27.63C50.4228 25.32 47.5428 23.49 46.7728 20.62C45.9327 17.47 46.9427 14.79 45.9427 11.7C46.2028 14.22 45.8627 15.91 45.0928 18.33C40.1828 11.57 40.6328 7.18997 44.7527 0C38.1227 9.17001 40.2527 14.86 45.8127 23.84C42.2427 23.4 39.8027 23.35 37.6927 20.24C39.7228 24.07 41.1027 25.46 46.8228 26.52C47.9227 26.72 48.6927 27.44 48.7828 28.55C49.0528 32.02 43.5928 34.69 44.0428 32.85C44.5128 30.95 41.1928 29.11 41.1928 29.11C41.1928 29.11 44.0428 32.85 40.9528 34C35.8728 35.9 28.1928 28.65 32.4128 22.61C33.7428 20.71 34.6328 19.01 36.1728 15.87C34.2928 18.27 30.0828 23.98 30.1828 20.92C30.2428 19.04 32.1028 13.36 33.9628 10.15C29.9028 15.91 26.1128 20.4 30.0128 28.08C31.6828 31.37 26.8428 27.84 23.3228 24.65C21.9028 23.36 26.5128 29.99 30.5928 31.02C32.4928 35.86 36.1927 37.72 41.2828 36.94C42.6428 36.73 41.8428 38.42 40.8528 39.37C34.3828 45.54 28.5828 43.58 22.1528 38.73C27.1128 43.36 29.9028 46.04 36.3228 43.74C35.4027 45.87 34.0927 48.72 32.0528 46.92C35.7828 50.21 36.2427 44.44 38.8228 43.49C49.3828 39.63 48.7327 35.01 53.3627 31.46C61.1727 35.22 64.3327 31.62 70.7427 31.77C71.1328 31.77 71.5128 32.02 71.8727 32.4C71.8427 32.44 71.8127 32.49 71.7827 32.53C69.9827 32.64 67.9227 33 66.3827 33.98C62.9127 36.17 63.3327 40.6 63.3327 40.6C63.3327 40.6 65.6127 41.95 68.2427 41.56C66.9527 53.01 78.1327 60.74 74.8327 69.91C72.7727 75.65 69.8227 80.47 60.5327 83.46C52.9127 85.92 48.2327 83.09 41.1527 84.49C34.1027 85.88 32.9327 87.45 29.1927 89.99C27.8427 89.09 25.6927 88.96 22.8727 90.05C18.7727 91.63 15.6727 97.39 15.6727 97.39C15.6727 97.39 19.3427 98.68 22.9127 98.55C22.7627 99.07 22.6227 99.6 22.5227 100.16C23.1127 104.01 23.3027 107.01 23.2127 109.34C21.1727 116.18 16.0227 112.4 15.2127 113.62C13.9927 117.2 15.1727 126.24 4.04266 131.56C3.64267 131.75 3.49268 132.09 3.50266 132.47C2.72266 132.52 1.81265 132.97 0.822662 133.91C-0.11734 134.8 0.272675 134.41 0.00265503 135.57C-0.0773315 135.91 1.68265 137.8 2.04266 137.73C3.25266 137.49 3.05267 137.79 3.99268 136.9C4.86267 136.08 5.38269 135.38 5.57266 134.77C5.66266 134.79 5.75266 134.8 5.85266 134.8C7.20267 134.81 10.5627 131.07 13.6427 127.31C12.7127 131.36 10.4327 135.82 4.52267 139.54C4.10266 139.8 3.98267 140.2 4.04266 140.64C3.18268 140.79 2.23267 141.4 1.26266 142.58C0.332672 143.71 0.722656 143.21 0.562653 144.57C0.512665 144.97 2.69266 146.93 3.08264 146.81C4.38263 146.4 4.21265 146.77 5.13263 145.64C5.99261 144.6 6.47263 143.75 6.61264 143.03C6.71265 143.03 6.82263 143.04 6.92264 143.03C9.89264 142.76 19.7626 124.67 20.4326 124.15C28.3127 118.03 34.4727 127.6 44.1627 114.98C45.0027 113.89 45.7126 112.82 46.3427 111.76C53.8926 112.55 61.8427 111.53 69.1227 108.84C73.1327 107.36 76.4327 105.68 79.1827 103.88C82.0127 103.96 85.6127 103.72 89.9627 102.95C92.6527 102.47 95.7527 101.61 98.8527 100.61C98.4627 101.27 97.9427 101.87 97.2227 102.35C97.1727 102.39 97.1227 102.43 97.0927 102.48C96.4527 102.51 95.7027 102.72 94.8427 103.16C93.6727 103.76 94.1627 103.49 93.5527 104.56C93.3727 104.88 94.4727 107.28 94.8328 107.32C96.0627 107.45 95.7828 107.69 96.9528 107.09C98.3928 106.35 99.1727 105.65 99.3727 104.9C102.683 103.83 101.093 103.07 102.873 99.2498C104.463 98.6898 106.013 98.1098 107.453 97.5598C105.813 99.1698 103.843 101.37 101.483 104.23C98.1328 108.3 97.8028 113.93 93.2428 115.3C93.1728 115.32 93.1128 115.35 93.0628 115.39C92.3828 115.21 91.5128 115.19 90.4628 115.37C89.0228 115.62 89.6428 115.5 88.6428 116.43C88.3428 116.71 88.7328 119.61 89.1028 119.77C90.3629 120.31 89.9929 120.47 91.4229 120.22C93.1829 119.91 94.2429 119.42 94.6929 118.7C99.6229 118.64 95.8829 116.47 104.193 110.43C112.083 104.69 113.763 97.3299 113.533 94.8199C113.713 93.9899 112.683 92.5599 111.423 92.4799C111.423 92.4799 111.483 92.48 111.483 92.48ZM94.5127 90.63C98.0027 88.45 101.723 85.66 104.793 83.26C103.803 85.09 102.693 87.51 101.423 90.6C101.393 90.68 101.363 90.76 101.333 90.84C99.1527 90.55 96.8627 90.41 94.5127 90.63C94.5127 90.63 94.5127 90.63 94.5127 90.63Z" fill="#231F20" transform="translate(476.517 135.71)" />
    <path id="Shape" d="M165.9 126.911C164.84 118.341 159.98 110.751 152.29 106.701C149.2 105.071 146.48 104.381 143.86 101.971C141.94 100.201 138.22 94.0715 144.13 94.7414C144.6 95.6414 144.11 96.6014 143.39 97.1915C143.39 97.1915 145.5 99.7915 145.5 99.7915C145.67 99.6615 145.94 99.4215 146.23 99.0915C146.23 99.0915 147.02 100.081 147.02 100.081C149.92 97.7614 149.6 93.2614 146.02 91.7914C141.43 87.5614 134.05 92.4614 135.21 98.2214C136.07 102.471 141.51 107.451 145.57 108.821C149 112.811 150.32 117.781 149.31 122.411C147.26 126.751 142.48 130.851 137.77 132.121C133.44 132.131 128.96 132.141 124.36 132.161C124.36 132.161 123.5 131.061 123.5 131.061C123.5 131.061 123.56 130.991 123.56 130.991C123.13 130.601 122.74 130.151 122.42 129.661C128.31 119.721 129.07 110.631 124.1 100.391C120.57 93.1215 112.56 70.6414 128.96 72.8115C127.3 71.0115 126.05 69.6414 124.36 69.2715C125.9 67.4415 125.82 61.9715 125.26 59.9115C125.26 59.9115 123.29 57.1315 121.02 57.7515C121.02 57.7515 120.67 58.5515 120.67 58.5515C121.13 56.5515 118.72 55.0315 114.93 55.5315C106.36 56.6615 98.92 54.4015 93.87 52.0715C91.99 49.9315 89.68 48.0015 87.11 46.2515C86.66 43.8715 84.93 39.9515 83.85 38.9015C82.38 37.4615 83.08 32.6515 83.59 31.4415C84.1 30.2315 82.69 28.1415 82.69 28.1415C83.14 27.9715 83.56 27.8415 83.63 27.2515C83.68 26.8215 83.05 27.2015 83.07 26.7615C83.08 26.5015 83.98 26.1115 83.83 25.8915C83.52 25.4215 83.75 24.7215 83.75 24.5115C83.74 23.9515 85.14 24.1715 85.08 23.6015C84.91 21.9915 82.44 21.2615 82.43 17.4415C82.43 17.4215 82.43 17.4015 82.43 17.3815C82.53 17.2015 82.64 17.0115 82.72 16.8315C85.02 11.7015 86.94 8.08148 80.19 5.62149C78.71 5.08148 76.5 2.6315 74.85 2.01151C68.9 -0.228485 63.48 -0.338501 59.61 0.431519C47.84 2.76151 47.13 14.3615 43.43 20.7315C41.26 21.1115 39.56 22.6315 38.83 24.5815C25.55 20.9015 12.15 7.2215 12.15 7.2215C12.15 7.2215 20.84 25.5215 17.97 44.6215C17.55 47.3915 22.14 42.2015 25.73 37.7815C26.17 42.2515 26.26 47.4215 25.59 52.9815C22.41 51.7315 17.68 51.5815 16.47 53.6815C16.49 53.7115 16.5 53.7515 16.52 53.7815C16.51 53.7815 16.49 53.7815 16.48 53.7815C21.5 67.7015 18.71 84.1315 26.04 97.1315C28.12 100.812 32.3 103.962 32.12 108.522C31.99 111.872 29.63 114.342 29.27 117.552C28.74 122.312 29.38 127.602 29.43 132.392C28.49 132.392 27.55 132.392 26.63 132.392C26.63 132.392 26.63 134.782 26.63 134.782C27.56 134.782 28.5 134.782 29.44 134.782C29.44 134.792 29.58 134.792 29.58 134.792C29.58 134.792 29.5 135.172 29.5 135.172L21.5 135.192C21.5 135.192 21.5 137.582 21.5 137.582C21.5 137.582 28.98 137.562 28.98 137.562C28.98 137.562 23.98 160.392 23.98 160.392C21.56 160.392 19.17 160.382 16.81 160.372C16.81 160.372 16.81 163.722 16.81 163.722C18.93 163.722 21.08 163.732 23.25 163.742C23.25 163.742 22.16 168.702 22.16 168.702C14.6 168.702 7.18 168.682 0 168.662C0 168.662 0 172.012 0 172.012C24.26 172.102 48.52 172.042 72.79 172.012C95.6 171.972 118.56 172.722 141.35 171.972C159.44 167.942 169.7 143.242 165.91 126.902C165.91 126.902 165.9 126.911 165.9 126.911ZM136.8 134.521C133.6 135.451 129.82 134.911 126.51 134.911C126.51 134.911 126.23 134.541 126.23 134.541C129.83 134.541 133.36 134.521 136.8 134.511C136.8 134.511 136.8 134.521 136.8 134.521ZM125.35 137.311C125.35 137.311 143.14 160.231 143.14 160.231C141.4 160.841 138.75 160.371 136.91 160.371C136.91 160.371 121.6 137.321 121.6 137.321L125.36 137.321L125.35 137.311ZM120.34 134.801C120.34 134.801 120.54 134.561 120.54 134.561C121.43 134.561 122.32 134.561 123.21 134.561C123.21 134.561 123.49 134.931 123.49 134.931C123.49 134.931 120 134.931 120 134.931C120 134.931 119.91 134.811 119.91 134.811C119.91 134.811 120.34 134.811 120.34 134.811L120.34 134.801ZM134.02 160.361C117.69 160.331 100.31 160.361 83.29 160.381C83.29 160.381 82.51 137.431 82.51 137.431L118.72 137.331L134.02 160.361C134.02 160.361 134.02 160.361 134.02 160.361ZM80.11 137.441C80.11 137.441 80.89 160.391 80.89 160.391C78.85 160.391 76.81 160.391 74.77 160.391C74.77 160.391 75.5 137.451 75.5 137.451L80.11 137.451L80.11 137.441ZM75.58 135.061L75.58 134.811L80.02 134.811C80.02 134.811 80.02 135.051 80.02 135.051C80.02 135.051 75.58 135.061 75.58 135.061C75.58 135.061 75.58 135.061 75.58 135.061ZM57.9 46.4014C55.66 45.4814 53.44 44.4314 51.29 43.3014C53 42.5114 54.72 41.7014 56.29 40.9414C56.81 42.6314 57.36 44.4714 57.91 46.4114C57.91 46.4114 57.9 46.4014 57.9 46.4014ZM117.04 134.811L117.13 134.951L82.43 135.051C82.43 135.051 82.43 134.821 82.43 134.821C82.43 134.821 117.04 134.821 117.04 134.821C117.04 134.821 117.04 134.811 117.04 134.811ZM117.88 62.1514C117.72 61.7314 118.7 61.0514 118.7 61.0514C119.41 60.5414 119.91 60.0214 120.24 59.5214C120.24 59.5214 118.65 63.1114 118.65 63.1114C118.36 63.1414 117.91 63.1614 117.35 63.1914C117.82 62.8814 118.03 62.5414 117.88 62.1614C117.88 62.1614 117.88 62.1514 117.88 62.1514ZM117.57 71.9014C114.48 74.9514 114.04 79.7714 114.25 84.1914C114.7 93.5815 123.94 106.251 114.28 113.871C114.28 113.871 105.29 113.871 105.29 113.871C104.79 108.951 102.38 102.041 97.2 92.4914C99.63 87.5114 100.06 80.5614 99.69 73.0414C99.69 73.0414 102.17 74.0714 102.17 74.0714C102.81 74.4214 111 73.5414 117.57 71.9014C117.57 71.9014 117.57 71.9014 117.57 71.9014ZM38.94 29.1114C39.97 31.4514 42.43 32.9714 45.11 32.6814C48.42 32.3214 50.82 29.3514 50.46 26.0314C50.43 25.7214 50.36 25.4214 50.29 25.1314C51.27 22.4614 52.58 20.9414 53.18 22.0014C53.04 23.4614 53.07 25.0314 53.32 26.7214C53.23 27.4314 53.38 27.9914 53.7 28.4414C54.12 29.8214 54.76 30.9114 55.51 31.8014C55.51 31.8014 55.51 31.8014 55.51 31.8014C53.67 30.9714 54.06 33.3614 55.21 37.3914C47.87 36.8314 40.76 33.8714 35.02 30.6414C36.27 30.1714 37.61 29.6414 38.93 29.1214C38.93 29.1214 38.94 29.1114 38.94 29.1114ZM32.04 134.821L39.9 134.821L39.86 135.171L31.96 135.191L32.04 134.811L32.04 134.821ZM31.43 137.591L39.6 137.571C39.6 137.571 37.18 160.441 37.18 160.441C33.55 160.441 29.96 160.441 26.42 160.431C26.42 160.431 31.43 137.591 31.43 137.591L31.43 137.591ZM72.13 168.691C71.58 168.691 71.03 168.691 70.48 168.691C55.25 168.721 39.68 168.741 24.61 168.741C24.61 168.741 25.7 163.781 25.7 163.781C41.23 163.811 56.76 163.791 72.29 163.771C72.29 163.771 72.13 168.691 72.13 168.691C72.13 168.691 72.13 168.691 72.13 168.691ZM72.39 160.421C61.44 160.441 50.38 160.451 39.59 160.451C39.59 160.451 42.01 137.571 42.01 137.571L73.11 137.481L72.38 160.421C72.38 160.421 72.39 160.421 72.39 160.421ZM73.19 135.091L42.26 135.181L42.3 134.831L73.2 134.831L73.2 135.091L73.19 135.091ZM74.52 168.691C74.52 168.691 74.68 163.771 74.68 163.771C95.2 163.741 115.73 163.691 136.25 163.741C136.25 163.741 139.54 168.691 139.54 168.691C118.96 168.621 96.47 168.651 74.52 168.691C74.52 168.691 74.52 168.691 74.52 168.691ZM142.09 168.211C142.09 168.211 139.12 163.751 139.12 163.751C140.48 163.751 141.87 163.771 143.23 163.721C143.34 163.701 152.14 161.481 159.17 151.551C153.51 162.581 145.39 166.861 142.09 168.211C142.09 168.211 142.09 168.211 142.09 168.211ZM145.4 159.281C145.4 159.281 128.36 137.331 128.36 137.331C130.79 137.331 133.22 137.361 135.65 137.291C146.66 135.161 156.08 123.371 151.99 111.981C157.43 115.601 161.11 121.251 162.6 127.581C164.05 140.051 156.68 153.691 145.4 159.291C145.4 159.291 145.4 159.281 145.4 159.281Z" fill="#231F20" transform="translate(0 117.849)" />
    <path id="Path" d="M353.69 201.94C346.8 201.94 339.63 201.07 332.6 200.22C324.18 199.2 316.23 198.24 309.67 198.93C259.53 204.24 227.31 203.63 168.89 185.96C114.17 169.42 58.92 155.27 0 142.7C0 142.7 0.160004 141.97 0.160004 141.97C59.11 154.54 114.37 168.69 169.11 185.24C227.41 202.86 259.57 203.47 309.6 198.18C316.25 197.47 324.24 198.44 332.7 199.47C344.92 200.95 357.55 202.48 368.27 199.39C389.43 193.29 406.77 185.17 423.54 177.32C430.29 174.16 436.67 171.18 443.06 168.44C503.8 142.42 534.75 114.05 552.75 94.97C567.33 79.51 575.13 66.59 582.02 55.18C594.92 33.81 601.25 15.38 644.7 0C644.7 0 644.95 0.700012 644.95 0.700012C601.76 15.99 595.49 34.32 582.67 55.56C575.77 67 567.94 79.96 553.3 95.48C535.26 114.61 504.23 143.05 443.36 169.12C436.98 171.85 430.61 174.84 423.86 177.99C407.06 185.85 389.7 193.98 368.48 200.1C363.84 201.44 358.85 201.92 353.71 201.92C353.71 201.92 353.69 201.94 353.69 201.94Z" fill="#231F20" transform="translate(108.21 36.85)" />
    <path id="Path" d="M353.69 199.7C346.81 199.7 339.63 198.83 332.6 197.98C324.18 196.96 316.23 196 309.67 196.69C259.53 202 227.31 201.39 168.89 183.72C114.17 167.18 58.92 153.03 0 140.46C0 140.46 0.160004 139.73 0.160004 139.73C59.11 152.3 114.37 166.45 169.11 183C227.41 200.62 259.57 201.23 309.6 195.94C316.25 195.23 324.24 196.2 332.7 197.23C344.92 198.71 357.55 200.24 368.27 197.15C389.43 191.05 406.77 182.93 423.54 175.08C430.29 171.92 436.67 168.94 443.06 166.2C503.8 140.18 534.75 111.81 552.75 92.73C567.33 77.27 575.13 64.35 582.02 52.94C594.92 31.57 603.49 15.38 646.94 0C646.94 0 647.94 1.45001 647.94 1.45001C604.75 16.74 595.49 32.08 582.67 53.32C575.77 64.76 567.94 77.72 553.3 93.24C535.26 112.37 504.23 140.81 443.36 166.88C436.98 169.61 430.61 172.6 423.86 175.75C407.06 183.61 389.7 191.74 368.49 197.86C363.85 199.2 358.86 199.68 353.72 199.68C353.72 199.68 353.69 199.7 353.69 199.7Z" fill="#231F20" transform="translate(103.72 33.86)" />
  </g>
</svg>